<?xml version="1.0" standalone="no"?>
<!DOCTYPE svg PUBLIC "-//W3C//DTD SVG 20010904//EN"
 "http://www.w3.org/TR/2001/REC-SVG-20010904/DTD/svg10.dtd">
<svg version="1.0" xmlns="http://www.w3.org/2000/svg"
 width="698.000000pt" height="344.612244pt" viewBox="0 0 698.000000 344.612244"
 preserveAspectRatio="xMidYMid meet">
<metadata>
Created by potrace 1.16, written by Peter Selinger 2001-2019
</metadata>
<g transform="translate(-149.000000,668.645117) scale(0.100000,-0.100000)"
fill="currentColor" stroke="none">
<path d="M4805 6675 c-169 -30 -359 -106 -503 -201 -105 -70 -267 -224 -342
-325 -105 -141 -196 -346 -236 -529 -26 -120 -27 -410 -1 -530 59 -274 176
-491 371 -685 161 -160 309 -253 509 -320 155 -51 238 -66 407 -72 170 -6 261
6 419 53 334 101 638 353 799 663 102 195 142 353 150 578 7 247 -35 441 -145
656 -185 363 -491 599 -913 703 -92 22 -408 28 -515 9z m490 -354 c44 -12 125
-43 180 -70 270 -132 454 -358 537 -659 29 -103 31 -361 5 -466 -76 -302 -262
-534 -542 -671 -141 -70 -236 -95 -395 -102 -198 -8 -376 36 -544 135 -231
138 -391 348 -463 609 -23 85 -27 118 -27 248 -1 160 11 229 61 365 118 317
419 566 756 625 117 20 328 14 432 -14z m-1470 -748 c-15 -78 -22 -227 -14
-322 28 -362 216 -693 512 -902 612 -432 1452 -236 1806 423 96 178 143 366
142 578 0 74 -5 159 -10 189 -15 74 -16 71 33 71 l44 0 12 -84 c16 -104 8
-342 -14 -444 -105 -479 -444 -849 -911 -995 -149 -46 -191 -52 -385 -51 -194
0 -277 13 -433 65 -454 153 -796 565 -873 1052 -13 77 -15 139 -11 252 8 205
8 205 64 205 l45 0 -7 -37z m111 15 c-3 -13 -11 -74 -17 -136 -41 -409 147
-799 501 -1042 212 -145 509 -214 755 -176 401 61 711 281 875 621 94 193 133
402 111 598 -6 56 -14 114 -17 130 -6 26 -5 27 39 27 l45 0 13 -72 c30 -182 5
-437 -61 -607 -73 -189 -141 -293 -280 -431 -178 -178 -349 -274 -598 -336
-85 -22 -336 -30 -440 -14 -240 35 -464 142 -643 308 -278 257 -417 613 -388
992 12 160 12 160 66 160 42 0 45 -2 39 -22z m110 -5 c-127 -609 269 -1170
879 -1243 465 -56 914 223 1075 667 65 181 76 351 35 566 l-7 37 45 0 44 0 11
-57 c53 -279 -6 -573 -164 -810 -68 -102 -203 -242 -289 -300 -222 -149 -497
-221 -740 -194 -270 31 -486 133 -676 321 -236 233 -354 562 -320 887 16 156
15 153 68 153 43 0 44 -1 39 -27z"/>
<path d="M5284 5625 c-9 -23 3 -45 25 -45 23 0 35 28 20 46 -15 18 -38 18 -45
-1z"/>
<path d="M5772 5593 c3 -48 4 -50 48 -44 6 0 10 21 10 46 0 44 -1 45 -31 45
-30 0 -30 -1 -27 -47z"/>
<path d="M4765 5445 c-22 -8 -41 -15 -42 -15 -7 0 -43 -62 -48 -83 -7 -25 -5
-27 24 -27 17 0 31 5 31 10 0 23 50 60 79 60 43 0 60 -9 77 -41 11 -22 22 -29
45 -29 27 0 30 3 24 23 -16 53 -68 101 -120 111 -16 3 -48 -1 -70 -9z"/>
<path d="M5105 5445 c-38 -13 -85 -55 -85 -76 0 -15 67 -10 81 7 9 11 26 15
56 12 43 -3 43 -3 43 29 0 22 -5 33 -14 33 -8 0 -20 2 -28 5 -7 2 -31 -2 -53
-10z"/>
<path d="M5282 5403 c3 -48 4 -50 48 -44 6 0 10 21 10 46 0 44 -1 45 -31 45
-30 0 -30 -1 -27 -47z"/>
<path d="M5473 5430 c-145 -88 -46 -300 118 -251 38 12 39 13 39 61 l0 48 -29
-29 c-16 -16 -39 -29 -50 -29 -62 0 -103 56 -81 110 27 66 111 69 148 5 10
-17 11 -12 12 31 0 45 -3 52 -25 62 -39 18 -96 14 -132 -8z"/>
<path d="M4550 5296 c0 -7 -9 -25 -21 -40 -29 -36 -89 -37 -117 -1 -17 22 -24
24 -46 15 -30 -11 -32 -18 -10 -48 53 -76 195 -66 239 17 25 49 20 71 -15 71
-19 0 -30 -5 -30 -14z"/>
<path d="M1490 5350 c0 -873 3 -1320 10 -1320 7 0 10 447 10 1320 0 873 -3
1320 -10 1320 -7 0 -10 -447 -10 -1320z"/>
<path d="M1600 5350 c0 -873 3 -1320 10 -1320 7 0 10 447 10 1320 0 873 -3
1320 -10 1320 -7 0 -10 -447 -10 -1320z"/>
<path d="M1700 5356 c0 -866 3 -1317 10 -1321 7 -4 10 437 10 1314 0 874 -3
1321 -10 1321 -7 0 -10 -445 -10 -1314z"/>
<path d="M1810 5349 l0 -1322 188 6 c210 7 322 26 477 81 452 162 776 562 852
1051 18 120 13 320 -12 440 -103 497 -469 888 -956 1019 -125 34 -234 46 -406
46 l-143 0 0 -1321z m470 952 c114 -34 265 -112 357 -186 322 -258 445 -685
312 -1085 -99 -301 -363 -547 -677 -632 -60 -16 -117 -22 -259 -25 l-183 -5 0
982 0 982 188 -5 c153 -3 200 -8 262 -26z"/>
<path d="M6873 5683 c3 -913 5 -993 21 -1058 97 -376 442 -634 816 -612 115 7
190 26 294 75 98 45 153 84 234 164 113 112 195 274 221 438 7 42 11 407 11
1023 l0 957 -170 0 -170 0 -2 -982 -3 -983 -23 -57 c-35 -86 -97 -163 -173
-214 -100 -66 -137 -77 -264 -78 -100 -1 -115 1 -169 26 -119 56 -189 125
-242 239 -43 92 -44 109 -44 1099 l0 950 -170 0 -171 0 4 -987z m109 -545 l3
-463 29 -84 c78 -223 268 -398 496 -456 84 -22 281 -16 355 10 103 36 198 91
267 154 78 72 115 121 162 219 62 126 66 162 66 646 l0 436 45 0 45 0 0 -403
c0 -222 -5 -440 -11 -486 -60 -486 -559 -797 -1019 -637 -199 70 -346 197
-438 381 -86 170 -92 221 -92 742 l0 403 44 0 45 0 3 -462z m108 20 c0 -486 1
-497 62 -616 40 -79 138 -186 211 -230 30 -18 88 -45 129 -59 98 -35 239 -37
343 -5 191 59 344 215 402 412 13 46 17 129 20 498 l5 442 39 0 39 0 0 -438
c0 -404 -2 -445 -20 -516 -116 -453 -645 -651 -1035 -387 -16 11 -60 51 -98
88 -51 51 -78 89 -112 158 -71 145 -75 180 -75 670 l0 425 45 0 45 0 0 -442z
m102 0 c4 -428 5 -445 26 -502 32 -87 63 -135 124 -193 189 -178 470 -176 659
4 31 29 71 80 88 112 59 111 61 133 61 598 l0 423 46 0 46 0 -4 -442 c-4 -428
-5 -445 -27 -513 -94 -289 -382 -454 -671 -386 -184 44 -350 201 -412 391 -20
61 -21 90 -25 508 l-5 442 45 0 46 0 3 -442z"/>
<path d="M2835 3592 c-6 -4 -10 -61 -10 -134 0 -108 2 -128 15 -128 13 0 15
17 12 113 -4 146 -5 158 -17 149z"/>
<path d="M5662 3591 c-10 -6 -14 -42 -15 -134 -2 -121 -1 -127 18 -127 19 0
20 6 17 92 -4 167 -6 178 -20 169z"/>
<path d="M7692 3591 c-10 -6 -14 -42 -15 -134 -2 -121 -1 -127 18 -127 19 0
20 6 17 92 -4 167 -6 178 -20 169z"/>
<path d="M1925 3445 l0 -115 28 0 c26 0 27 1 12 16 -13 14 -16 34 -13 115 2
83 1 99 -12 99 -12 0 -15 -19 -15 -115z"/>
<path d="M2027 3546 c61 -28 84 -127 41 -181 l-21 -28 21 12 c29 16 52 62 52
105 0 47 -42 94 -90 102 l-35 5 32 -15z"/>
<path d="M2437 3553 c-4 -3 -7 -12 -7 -20 0 -15 26 -18 34 -4 7 11 -18 33 -27
24z"/>
<path d="M4510 3547 c61 -31 90 -133 53 -187 l-17 -25 22 19 c12 10 26 34 33
53 23 69 -27 153 -90 153 l-26 0 25 -13z"/>
<path d="M7240 3464 c5 -85 9 -99 29 -115 13 -11 35 -18 50 -18 24 2 24 2 3 6
-41 8 -54 43 -50 137 3 80 2 86 -17 86 -19 0 -20 -5 -15 -96z"/>
<path d="M7409 3473 c5 -91 8 -84 13 25 2 36 -1 62 -7 62 -6 0 -8 -33 -6 -87z"/>
<path d="M7597 3553 c-4 -3 -7 -12 -7 -20 0 -15 26 -18 34 -4 7 11 -18 33 -27
24z"/>
<path d="M7767 3553 c-4 -3 -7 -12 -7 -20 0 -15 26 -18 34 -4 7 11 -18 33 -27
24z"/>
<path d="M2167 3544 c-9 -10 2 -24 19 -24 8 0 14 7 14 15 0 15 -21 21 -33 9z"/>
<path d="M4401 3524 c-66 -84 -10 -196 96 -193 l38 1 -37 7 c-46 9 -67 27 -85
68 -17 43 -17 93 3 121 21 31 10 28 -15 -4z"/>
<path d="M2521 3516 c-14 -14 -19 -26 -13 -26 8 0 12 -19 12 -54 0 -69 14
-106 39 -106 11 0 22 4 25 9 3 5 -2 8 -12 7 -15 -1 -18 12 -22 97 l-5 99 -24
-26z"/>
<path d="M4855 3510 c-10 -11 -13 -20 -7 -20 7 0 12 -29 14 -77 3 -73 4 -78
27 -81 13 -2 28 1 33 6 7 7 4 10 -8 9 -17 -2 -19 7 -22 91 -1 50 -6 92 -11 92
-4 0 -16 -9 -26 -20z"/>
<path d="M7475 3510 c-10 -11 -13 -20 -7 -20 7 0 12 -29 14 -77 3 -73 4 -78
27 -81 13 -2 28 1 33 6 7 7 4 10 -8 9 -17 -2 -19 7 -22 91 -1 50 -6 92 -11 92
-4 0 -16 -9 -26 -20z"/>
<path d="M7855 3514 c-14 -11 -16 -17 -8 -22 7 -5 13 -38 15 -82 3 -70 5 -75
27 -78 13 -2 28 2 35 9 8 9 7 11 -6 6 -28 -10 -39 17 -37 97 1 42 0 78 -2 80
-2 3 -13 -2 -24 -10z"/>
<path d="M2355 3510 c-3 -5 -15 -10 -27 -10 -19 0 -19 -1 3 -19 17 -13 23 -29
23 -56 0 -33 1 -35 13 -19 18 24 16 54 -4 76 -15 17 -15 18 10 18 15 0 27 5
27 10 0 6 -9 10 -19 10 -11 0 -23 -4 -26 -10z"/>
<path d="M2180 3492 c-12 -2 -15 -19 -15 -82 0 -73 2 -80 20 -80 18 0 20 6 17
62 -4 97 -6 104 -22 100z"/>
<path d="M2445 3492 c-5 -4 -10 -42 -10 -84 0 -63 3 -78 15 -78 13 0 15 13 12
73 -4 93 -5 98 -17 89z"/>
<path d="M2706 3490 c28 -11 38 -27 39 -65 1 -16 3 -45 3 -62 1 -20 7 -33 15
-33 10 0 12 17 9 68 -4 73 -23 103 -66 101 l-21 0 21 -9z"/>
<path d="M4663 3493 c-17 -6 -17 -100 0 -133 13 -26 61 -40 79 -22 6 6 1 8
-14 5 -35 -7 -47 14 -50 88 -2 47 -7 65 -15 62z"/>
<path d="M4775 3492 c-6 -4 -9 -41 -7 -84 3 -65 6 -78 20 -78 15 0 17 10 14
77 -4 79 -9 98 -27 85z"/>
<path d="M4985 3492 c-6 -4 -10 -42 -10 -84 0 -63 3 -78 15 -78 12 0 15 15 13
81 -3 88 -4 91 -18 81z"/>
<path d="M5037 3494 c-10 -11 3 -24 24 -24 10 0 19 7 19 15 0 15 -31 21 -43 9z"/>
<path d="M5180 3492 c14 -4 29 -18 35 -30 9 -21 35 -31 35 -14 0 20 -28 42
-60 47 -26 3 -29 3 -10 -3z"/>
<path d="M5356 3490 c28 -11 38 -27 39 -65 1 -16 3 -45 3 -62 1 -20 7 -33 15
-33 10 0 12 17 9 68 -4 73 -23 103 -66 101 l-21 0 21 -9z"/>
<path d="M5559 3481 c26 -24 37 -26 46 -10 9 14 4 18 -36 25 l-34 5 24 -20z"/>
<path d="M5747 3482 c27 -22 37 -70 24 -116 -9 -33 -8 -36 12 -36 21 0 22 4
19 67 -4 73 -20 103 -56 103 l-21 0 22 -18z"/>
<path d="M7605 3492 c-5 -4 -10 -42 -10 -84 0 -63 3 -78 15 -78 13 0 15 13 12
73 -4 93 -5 98 -17 89z"/>
<path d="M7775 3492 c-5 -4 -10 -42 -10 -84 0 -63 3 -78 15 -78 13 0 15 13 12
73 -4 93 -5 98 -17 89z"/>
<path d="M7974 3458 c12 -24 29 -63 39 -88 14 -36 20 -42 27 -29 7 12 2 32
-16 69 -14 29 -26 61 -27 71 -1 12 -9 19 -23 19 l-21 0 21 -42z"/>
<path d="M8090 3484 c0 -14 3 -14 15 -4 8 7 15 14 15 16 0 2 -7 4 -15 4 -8 0
-15 -7 -15 -16z"/>
<path d="M2267 3472 c-10 -10 -17 -28 -17 -39 0 -25 30 -53 56 -53 18 1 18 1
1 11 -26 15 -39 56 -27 80 13 24 8 24 -13 1z"/>
<path d="M5122 3467 c-14 -15 -22 -36 -22 -58 0 -69 79 -104 131 -58 23 19 23
20 2 10 -37 -18 -70 -13 -92 15 -25 31 -26 49 -7 87 18 33 16 34 -12 4z"/>
<path d="M5497 3478 c-41 -30 -35 -125 8 -142 27 -10 69 -6 88 8 17 13 14 14
-21 9 -32 -4 -44 -1 -61 16 -25 25 -28 77 -4 103 19 21 14 24 -10 6z"/>
<path d="M2652 3404 c-42 -29 -12 -84 39 -71 13 4 30 17 38 29 13 22 13 23 -6
6 -41 -37 -87 -12 -57 31 18 25 16 26 -14 5z"/>
<path d="M5302 3404 c-42 -29 -12 -84 39 -71 13 4 30 17 38 29 13 22 13 23 -6
6 -41 -37 -87 -12 -57 31 18 25 16 26 -14 5z"/>
<path d="M2262 3360 c3 -23 8 -25 61 -30 35 -3 62 -11 68 -20 8 -12 9 -9 7 10
-3 23 -9 26 -62 32 -33 4 -64 13 -68 20 -6 9 -8 4 -6 -12z"/>
<path d="M7389 3353 c-13 -16 -12 -17 4 -4 16 13 21 21 13 21 -2 0 -10 -8 -17
-17z"/>
<path d="M2246 3304 c-11 -28 -6 -52 10 -58 24 -9 67 -7 84 5 12 8 9 9 -13 5
-40 -9 -70 10 -64 40 5 27 -7 33 -17 8z"/>
<path d="M2369 3273 c-13 -16 -12 -17 4 -4 9 7 17 15 17 17 0 8 -8 3 -21 -13z"/>
<path d="M7940 3280 c0 -5 11 -10 24 -10 14 0 28 5 31 10 4 6 -7 10 -24 10
-17 0 -31 -4 -31 -10z"/>
</g>
</svg>
